<?xml version="1.0" encoding="UTF-8" standalone="no"?>
<!DOCTYPE svg PUBLIC "-//W3C//DTD SVG 1.1//EN"
 "http://www.w3.org/Graphics/SVG/1.1/DTD/svg11.dtd">
<!-- Generated by graphviz version 2.40.1 (20161225.0304)
 -->
<!-- Title: %3 Pages: 1 -->
<svg width="768pt" height="723pt"
 viewBox="0.00 0.00 768.00 723.00" xmlns="http://www.w3.org/2000/svg" xmlns:xlink="http://www.w3.org/1999/xlink">
<g id="graph0" class="graph" transform="scale(1 1) rotate(0) translate(4 719)">
<title>%3</title>
<polygon fill="#ffffff" stroke="transparent" points="-4,4 -4,-719 764,-719 764,4 -4,4"/>
<!-- 1 -->
<g id="node1" class="node">
<title>1</title>
<polygon fill="#ff0000" stroke="#ff0000" points="546,-715 491,-715 491,-674 546,-674 546,-715"/>
<text text-anchor="middle" x="518.5" y="-703" font-family="Arial" font-size="10.00" fill="#ffffff">main</text>
<text text-anchor="middle" x="518.5" y="-692" font-family="Arial" font-size="10.00" fill="#ffffff">100.00%</text>
<text text-anchor="middle" x="518.5" y="-681" font-family="Arial" font-size="10.00" fill="#ffffff">(0.00%)</text>
</g>
<!-- 2 -->
<g id="node2" class="node">
<title>2</title>
<polygon fill="#f44702" stroke="#f44702" points="540,-634 365,-634 365,-582 540,-582 540,-634"/>
<text text-anchor="middle" x="452.5" y="-622" font-family="Arial" font-size="10.00" fill="#ffffff">TAvl::Add(char*, unsigned long long)</text>
<text text-anchor="middle" x="452.5" y="-611" font-family="Arial" font-size="10.00" fill="#ffffff">92.84%</text>
<text text-anchor="middle" x="452.5" y="-600" font-family="Arial" font-size="10.00" fill="#ffffff">(0.00%)</text>
<text text-anchor="middle" x="452.5" y="-589" font-family="Arial" font-size="10.00" fill="#ffffff">1000000×</text>
</g>
<!-- 1&#45;&gt;2 -->
<g id="edge1" class="edge">
<title>1&#45;&gt;2</title>
<path fill="none" stroke="#f44702" stroke-width="3.71" d="M502.5232,-673.5608C495.2169,-663.985 486.3774,-652.3999 478.174,-641.6485"/>
<polygon fill="#f44702" stroke="#f44702" stroke-width="3.71" points="480.8387,-639.6018 472.3441,-634.0078 475.4962,-643.6781 480.8387,-639.6018"/>
<text text-anchor="middle" x="517" y="-657" font-family="Arial" font-size="10.00" fill="#f44702">92.84%</text>
<text text-anchor="middle" x="517" y="-646" font-family="Arial" font-size="10.00" fill="#f44702">1000000×</text>
</g>
<!-- 9 -->
<g id="node3" class="node">
<title>9</title>
<polygon fill="#0d2d7c" stroke="#0d2d7c" points="641.5,-634 567.5,-634 567.5,-582 641.5,-582 641.5,-634"/>
<text text-anchor="middle" x="604.5" y="-622" font-family="Arial" font-size="10.00" fill="#ffffff">TAvl::~TAvl()</text>
<text text-anchor="middle" x="604.5" y="-611" font-family="Arial" font-size="10.00" fill="#ffffff">7.16%</text>
<text text-anchor="middle" x="604.5" y="-600" font-family="Arial" font-size="10.00" fill="#ffffff">(0.00%)</text>
<text text-anchor="middle" x="604.5" y="-589" font-family="Arial" font-size="10.00" fill="#ffffff">1×</text>
</g>
<!-- 1&#45;&gt;9 -->
<g id="edge2" class="edge">
<title>1&#45;&gt;9</title>
<path fill="none" stroke="#0d2d7c" stroke-width=".5" d="M539.3182,-673.5608C550.3175,-662.4975 563.9834,-648.7522 575.9568,-636.7092"/>
<polygon fill="#0d2d7c" stroke="#0d2d7c" stroke-width=".5" points="577.0435,-637.3536 578.6425,-634.0078 575.3061,-635.6262 577.0435,-637.3536"/>
<text text-anchor="middle" x="583.5" y="-657" font-family="Arial" font-size="10.00" fill="#0d2d7c">7.16%</text>
<text text-anchor="middle" x="583.5" y="-646" font-family="Arial" font-size="10.00" fill="#0d2d7c">1×</text>
</g>
<!-- 3 -->
<g id="node4" class="node">
<title>3</title>
<polygon fill="#f44702" stroke="#f44702" points="469.5,-542 223.5,-542 223.5,-490 469.5,-490 469.5,-542"/>
<text text-anchor="middle" x="346.5" y="-530" font-family="Arial" font-size="10.00" fill="#ffffff">TAvl::Insert(TAvl::TNode*, char*, unsigned long long)</text>
<text text-anchor="middle" x="346.5" y="-519" font-family="Arial" font-size="10.00" fill="#ffffff">92.84%</text>
<text text-anchor="middle" x="346.5" y="-508" font-family="Arial" font-size="10.00" fill="#ffffff">(46.42%)</text>
<text text-anchor="middle" x="346.5" y="-497" font-family="Arial" font-size="10.00" fill="#ffffff">19859603×</text>
</g>
<!-- 2&#45;&gt;3 -->
<g id="edge3" class="edge">
<title>2&#45;&gt;3</title>
<path fill="none" stroke="#f44702" stroke-width="3.71" d="M422.4082,-581.8826C410.4354,-571.4911 396.5313,-559.4234 383.9192,-548.4771"/>
<polygon fill="#f44702" stroke="#f44702" stroke-width="3.71" points="386.1196,-545.9378 376.6671,-542.1827 381.7148,-551.0128 386.1196,-545.9378"/>
<text text-anchor="middle" x="434" y="-565" font-family="Arial" font-size="10.00" fill="#f44702">92.84%</text>
<text text-anchor="middle" x="434" y="-554" font-family="Arial" font-size="10.00" fill="#f44702">1000000×</text>
</g>
<!-- 8 -->
<g id="node14" class="node">
<title>8</title>
<polygon fill="#0d2d7c" stroke="#0d2d7c" points="699,-542 546,-542 546,-490 699,-490 699,-542"/>
<text text-anchor="middle" x="622.5" y="-530" font-family="Arial" font-size="10.00" fill="#ffffff">TAvl::TreeDelete(TAvl::TNode*)</text>
<text text-anchor="middle" x="622.5" y="-519" font-family="Arial" font-size="10.00" fill="#ffffff">7.16%</text>
<text text-anchor="middle" x="622.5" y="-508" font-family="Arial" font-size="10.00" fill="#ffffff">(6.70%)</text>
<text text-anchor="middle" x="622.5" y="-497" font-family="Arial" font-size="10.00" fill="#ffffff">1985121×</text>
</g>
<!-- 9&#45;&gt;8 -->
<g id="edge16" class="edge">
<title>9&#45;&gt;8</title>
<path fill="none" stroke="#0d2d7c" stroke-width=".5" d="M609.6099,-581.8826C611.814,-570.6171 614.4036,-557.3815 616.6812,-545.7404"/>
<polygon fill="#0d2d7c" stroke="#0d2d7c" stroke-width=".5" points="617.9074,-545.8528 617.3773,-542.1827 615.503,-545.3824 617.9074,-545.8528"/>
<text text-anchor="middle" x="629.5" y="-565" font-family="Arial" font-size="10.00" fill="#0d2d7c">7.16%</text>
<text text-anchor="middle" x="629.5" y="-554" font-family="Arial" font-size="10.00" fill="#0d2d7c">1×</text>
</g>
<!-- 3&#45;&gt;3 -->
<g id="edge4" class="edge">
<title>3&#45;&gt;3</title>
<path fill="none" stroke="#f44702" stroke-width="3.71" d="M469.7536,-521.3396C475.276,-519.981 478.5,-518.2012 478.5,-516 478.5,-515.7249 478.4496,-515.4563 478.3507,-515.1943"/>
<polygon fill="#f44702" stroke="#f44702" stroke-width="3.71" points="479.8125,-512.1667 469.7536,-510.6604 476.6778,-518.1107 479.8125,-512.1667"/>
<text text-anchor="middle" x="503" y="-513.5" font-family="Arial" font-size="10.00" fill="#f44702">18859603×</text>
</g>
<!-- 4 -->
<g id="node5" class="node">
<title>4</title>
<polygon fill="#0ab122" stroke="#0ab122" points="422.5,-450 270.5,-450 270.5,-398 422.5,-398 422.5,-450"/>
<text text-anchor="middle" x="346.5" y="-438" font-family="Arial" font-size="10.00" fill="#ffffff">TAvl::Rebalance(TAvl::TNode*)</text>
<text text-anchor="middle" x="346.5" y="-427" font-family="Arial" font-size="10.00" fill="#ffffff">46.42%</text>
<text text-anchor="middle" x="346.5" y="-416" font-family="Arial" font-size="10.00" fill="#ffffff">(1.62%)</text>
<text text-anchor="middle" x="346.5" y="-405" font-family="Arial" font-size="10.00" fill="#ffffff">18867043×</text>
</g>
<!-- 3&#45;&gt;4 -->
<g id="edge5" class="edge">
<title>3&#45;&gt;4</title>
<path fill="none" stroke="#0ab122" stroke-width="1.86" d="M346.5,-489.8826C346.5,-479.6854 346.5,-467.874 346.5,-457.092"/>
<polygon fill="#0ab122" stroke="#0ab122" stroke-width="1.86" points="348.8801,-456.9827 346.5,-450.1827 344.1201,-456.9828 348.8801,-456.9827"/>
<text text-anchor="middle" x="371" y="-473" font-family="Arial" font-size="10.00" fill="#0ab122">46.42%</text>
<text text-anchor="middle" x="371" y="-462" font-family="Arial" font-size="10.00" fill="#0ab122">18867043×</text>
</g>
<!-- 6 -->
<g id="node6" class="node">
<title>6</title>
<polygon fill="#0c8891" stroke="#0c8891" points="327,-144 180,-144 180,-92 327,-92 327,-144"/>
<text text-anchor="middle" x="253.5" y="-132" font-family="Arial" font-size="10.00" fill="#ffffff">TAvl::FixHeight(TAvl::TNode*)</text>
<text text-anchor="middle" x="253.5" y="-121" font-family="Arial" font-size="10.00" fill="#ffffff">23.23%</text>
<text text-anchor="middle" x="253.5" y="-110" font-family="Arial" font-size="10.00" fill="#ffffff">(1.62%)</text>
<text text-anchor="middle" x="253.5" y="-99" font-family="Arial" font-size="10.00" fill="#ffffff">20253515×</text>
</g>
<!-- 4&#45;&gt;6 -->
<g id="edge6" class="edge">
<title>4&#45;&gt;6</title>
<path fill="none" stroke="#0c7d8f" stroke-width=".87" d="M270.2222,-419.0578C213.6477,-414.1626 142.2268,-405.0152 117.5,-389 105.1784,-381.0194 67.3228,-315.0961 62.5,-297 56.5484,-274.6684 51.5825,-265.3699 62.5,-245 87.2336,-198.8519 136.9454,-166.6061 179.4526,-146.1554"/>
<polygon fill="#0c7d8f" stroke="#0c7d8f" stroke-width=".87" points="180.2643,-147.5911 183.8053,-144.09 178.8538,-144.6188 180.2643,-147.5911"/>
<text text-anchor="middle" x="87" y="-274" font-family="Arial" font-size="10.00" fill="#0c7d8f">21.64%</text>
<text text-anchor="middle" x="87" y="-263" font-family="Arial" font-size="10.00" fill="#0c7d8f">18867043×</text>
</g>
<!-- 7 -->
<g id="node7" class="node">
<title>7</title>
<polygon fill="#0c7b8f" stroke="#0c7b8f" points="692.5,-297 524.5,-297 524.5,-245 692.5,-245 692.5,-297"/>
<text text-anchor="middle" x="608.5" y="-285" font-family="Arial" font-size="10.00" fill="#ffffff">TAvl::Balance(TAvl::TNode const*)</text>
<text text-anchor="middle" x="608.5" y="-274" font-family="Arial" font-size="10.00" fill="#ffffff">21.35%</text>
<text text-anchor="middle" x="608.5" y="-263" font-family="Arial" font-size="10.00" fill="#ffffff">(1.39%)</text>
<text text-anchor="middle" x="608.5" y="-252" font-family="Arial" font-size="10.00" fill="#ffffff">19329184×</text>
</g>
<!-- 4&#45;&gt;7 -->
<g id="edge7" class="edge">
<title>4&#45;&gt;7</title>
<path fill="none" stroke="#0c7b8f" stroke-width=".85" d="M422.6269,-413.0065C461.4836,-406.559 504.1482,-397.9406 521.5,-389 557.2584,-370.5753 582.0239,-329.9259 595.7408,-301.5155"/>
<polygon fill="#0c7b8f" stroke="#0c7b8f" stroke-width=".85" points="597.3341,-301.9127 597.8475,-297.0662 594.4238,-300.5348 597.3341,-301.9127"/>
<text text-anchor="middle" x="576" y="-381" font-family="Arial" font-size="10.00" fill="#0c7b8f">21.35%</text>
<text text-anchor="middle" x="576" y="-370" font-family="Arial" font-size="10.00" fill="#0c7b8f">19329184×</text>
</g>
<!-- 10 -->
<g id="node8" class="node">
<title>10</title>
<polygon fill="#0d1074" stroke="#0d1074" points="314,-236 163,-236 163,-184 314,-184 314,-236"/>
<text text-anchor="middle" x="238.5" y="-224" font-family="Arial" font-size="10.00" fill="#ffffff">TAvl::RotateLeft(TAvl::TNode*)</text>
<text text-anchor="middle" x="238.5" y="-213" font-family="Arial" font-size="10.00" fill="#ffffff">0.80%</text>
<text text-anchor="middle" x="238.5" y="-202" font-family="Arial" font-size="10.00" fill="#ffffff">(0.00%)</text>
<text text-anchor="middle" x="238.5" y="-191" font-family="Arial" font-size="10.00" fill="#ffffff">347037×</text>
</g>
<!-- 4&#45;&gt;10 -->
<g id="edge8" class="edge">
<title>4&#45;&gt;10</title>
<path fill="none" stroke="#0d0e73" stroke-width=".5" d="M270.3429,-413.0158C208.4312,-402.3437 128.2254,-383.9399 108.5,-358 75.1789,-314.1811 135.1568,-266.9539 184.2796,-237.9285"/>
<polygon fill="#0d0e73" stroke="#0d0e73" stroke-width=".5" points="185.0974,-238.8692 187.4984,-236.0432 183.8592,-236.7551 185.0974,-238.8692"/>
<text text-anchor="middle" x="127.5" y="-335" font-family="Arial" font-size="10.00" fill="#0d0e73">0.27%</text>
<text text-anchor="middle" x="127.5" y="-324" font-family="Arial" font-size="10.00" fill="#0d0e73">115942×</text>
</g>
<!-- 11 -->
<g id="node9" class="node">
<title>11</title>
<polygon fill="#0d1074" stroke="#0d1074" points="487,-236 330,-236 330,-184 487,-184 487,-236"/>
<text text-anchor="middle" x="408.5" y="-224" font-family="Arial" font-size="10.00" fill="#ffffff">TAvl::RotateRight(TAvl::TNode*)</text>
<text text-anchor="middle" x="408.5" y="-213" font-family="Arial" font-size="10.00" fill="#ffffff">0.79%</text>
<text text-anchor="middle" x="408.5" y="-202" font-family="Arial" font-size="10.00" fill="#ffffff">(0.00%)</text>
<text text-anchor="middle" x="408.5" y="-191" font-family="Arial" font-size="10.00" fill="#ffffff">346199×</text>
</g>
<!-- 4&#45;&gt;11 -->
<g id="edge9" class="edge">
<title>4&#45;&gt;11</title>
<path fill="none" stroke="#0d0e73" stroke-width=".5" d="M422.8726,-410.0345C452.2821,-400.526 482.9884,-384.6055 500.5,-358 527.4375,-317.0737 483.4758,-268.6996 447.5373,-238.6791"/>
<polygon fill="#0d0e73" stroke="#0d0e73" stroke-width=".5" points="448.0054,-237.4768 444.5271,-236.1914 446.4446,-239.3653 448.0054,-237.4768"/>
<text text-anchor="middle" x="528.5" y="-335" font-family="Arial" font-size="10.00" fill="#0d0e73">0.26%</text>
<text text-anchor="middle" x="528.5" y="-324" font-family="Arial" font-size="10.00" fill="#0d0e73">115104×</text>
</g>
<!-- 12 -->
<g id="node10" class="node">
<title>12</title>
<polygon fill="#0d1074" stroke="#0d1074" points="496,-358 331,-358 331,-306 496,-306 496,-358"/>
<text text-anchor="middle" x="413.5" y="-346" font-family="Arial" font-size="10.00" fill="#ffffff">TAvl::BigRotateLeft(TAvl::TNode*)</text>
<text text-anchor="middle" x="413.5" y="-335" font-family="Arial" font-size="10.00" fill="#ffffff">0.76%</text>
<text text-anchor="middle" x="413.5" y="-324" font-family="Arial" font-size="10.00" fill="#ffffff">(0.23%)</text>
<text text-anchor="middle" x="413.5" y="-313" font-family="Arial" font-size="10.00" fill="#ffffff">115350×</text>
</g>
<!-- 4&#45;&gt;12 -->
<g id="edge10" class="edge">
<title>4&#45;&gt;12</title>
<path fill="none" stroke="#0d1074" stroke-width=".5" d="M365.5203,-397.8826C373.866,-386.4228 383.6963,-372.9245 392.2787,-361.1397"/>
<polygon fill="#0d1074" stroke="#0d1074" stroke-width=".5" points="393.3619,-361.7332 394.4321,-358.1827 391.3814,-360.2908 393.3619,-361.7332"/>
<text text-anchor="middle" x="407.5" y="-381" font-family="Arial" font-size="10.00" fill="#0d1074">0.76%</text>
<text text-anchor="middle" x="407.5" y="-370" font-family="Arial" font-size="10.00" fill="#0d1074">115350×</text>
</g>
<!-- 14 -->
<g id="node11" class="node">
<title>14</title>
<polygon fill="#0d0f73" stroke="#0d0f73" points="322,-358 151,-358 151,-306 322,-306 322,-358"/>
<text text-anchor="middle" x="236.5" y="-346" font-family="Arial" font-size="10.00" fill="#ffffff">TAvl::BigRotateRight(TAvl::TNode*)</text>
<text text-anchor="middle" x="236.5" y="-335" font-family="Arial" font-size="10.00" fill="#ffffff">0.53%</text>
<text text-anchor="middle" x="236.5" y="-324" font-family="Arial" font-size="10.00" fill="#ffffff">(0.00%)</text>
<text text-anchor="middle" x="236.5" y="-313" font-family="Arial" font-size="10.00" fill="#ffffff">115745×</text>
</g>
<!-- 4&#45;&gt;14 -->
<g id="edge11" class="edge">
<title>4&#45;&gt;14</title>
<path fill="none" stroke="#0d0f73" stroke-width=".5" d="M315.2726,-397.8826C301.3386,-386.2286 284.8837,-372.4663 270.6262,-360.5419"/>
<polygon fill="#0d0f73" stroke="#0d0f73" stroke-width=".5" points="271.2761,-359.4885 267.8054,-358.1827 269.7043,-361.3679 271.2761,-359.4885"/>
<text text-anchor="middle" x="324.5" y="-381" font-family="Arial" font-size="10.00" fill="#0d0f73">0.53%</text>
<text text-anchor="middle" x="324.5" y="-370" font-family="Arial" font-size="10.00" fill="#0d0f73">115745×</text>
</g>
<!-- 5 -->
<g id="node12" class="node">
<title>5</title>
<polygon fill="#0ba944" stroke="#0ba944" points="680,-52 519,-52 519,0 680,0 680,-52"/>
<text text-anchor="middle" x="599.5" y="-40" font-family="Arial" font-size="10.00" fill="#ffffff">TAvl::Height(TAvl::TNode const*)</text>
<text text-anchor="middle" x="599.5" y="-29" font-family="Arial" font-size="10.00" fill="#ffffff">40.88%</text>
<text text-anchor="middle" x="599.5" y="-18" font-family="Arial" font-size="10.00" fill="#ffffff">(40.88%)</text>
<text text-anchor="middle" x="599.5" y="-7" font-family="Arial" font-size="10.00" fill="#ffffff">79165398×</text>
</g>
<!-- 6&#45;&gt;5 -->
<g id="edge12" class="edge">
<title>6&#45;&gt;5</title>
<path fill="none" stroke="#0c798e" stroke-width=".84" d="M327.0881,-99.9407C378.8056,-87.0618 449.5435,-69.0711 511.5,-52 512.4215,-51.7461 513.3481,-51.4898 514.2792,-51.2314"/>
<polygon fill="#0c798e" stroke="#0c798e" stroke-width=".84" points="514.9698,-52.7102 518.9676,-49.9227 514.1041,-49.6088 514.9698,-52.7102"/>
<text text-anchor="middle" x="502" y="-75" font-family="Arial" font-size="10.00" fill="#0c798e">20.92%</text>
<text text-anchor="middle" x="502" y="-64" font-family="Arial" font-size="10.00" fill="#0c798e">40507030×</text>
</g>
<!-- 13 -->
<g id="node13" class="node">
<title>13</title>
<polygon fill="#0d1074" stroke="#0d1074" points="507,-52 0,-52 0,0 507,0 507,-52"/>
<text text-anchor="middle" x="253.5" y="-40" font-family="Arial" font-size="10.00" fill="#ffffff">unsigned long long const&amp; std::max&lt;unsigned long long&gt;(unsigned long long const&amp;, unsigned long long const&amp;)</text>
<text text-anchor="middle" x="253.5" y="-29" font-family="Arial" font-size="10.00" fill="#ffffff">0.69%</text>
<text text-anchor="middle" x="253.5" y="-18" font-family="Arial" font-size="10.00" fill="#ffffff">(0.69%)</text>
<text text-anchor="middle" x="253.5" y="-7" font-family="Arial" font-size="10.00" fill="#ffffff">20253515×</text>
</g>
<!-- 6&#45;&gt;13 -->
<g id="edge13" class="edge">
<title>6&#45;&gt;13</title>
<path fill="none" stroke="#0d1074" stroke-width=".5" d="M253.5,-91.8826C253.5,-80.6171 253.5,-67.3815 253.5,-55.7404"/>
<polygon fill="#0d1074" stroke="#0d1074" stroke-width=".5" points="254.7251,-55.6827 253.5,-52.1827 252.2751,-55.6828 254.7251,-55.6827"/>
<text text-anchor="middle" x="278" y="-75" font-family="Arial" font-size="10.00" fill="#0d1074">0.69%</text>
<text text-anchor="middle" x="278" y="-64" font-family="Arial" font-size="10.00" fill="#0d1074">20253515×</text>
</g>
<!-- 7&#45;&gt;5 -->
<g id="edge14" class="edge">
<title>7&#45;&gt;5</title>
<path fill="none" stroke="#0c738d" stroke-width=".8" d="M607.5368,-244.7807C605.8587,-199.0987 602.4079,-105.1597 600.6236,-56.5866"/>
<polygon fill="#0c738d" stroke="#0c738d" stroke-width=".8" points="602.1955,-56.4699 600.4562,-52.0308 599.0476,-56.5856 602.1955,-56.4699"/>
<text text-anchor="middle" x="630" y="-167" font-family="Arial" font-size="10.00" fill="#0c738d">19.96%</text>
<text text-anchor="middle" x="630" y="-156" font-family="Arial" font-size="10.00" fill="#0c738d">38658368×</text>
</g>
<!-- 10&#45;&gt;6 -->
<g id="edge17" class="edge">
<title>10&#45;&gt;6</title>
<path fill="none" stroke="#0d1074" stroke-width=".5" d="M242.7583,-183.8826C244.595,-172.6171 246.753,-159.3815 248.651,-147.7404"/>
<polygon fill="#0d1074" stroke="#0d1074" stroke-width=".5" points="249.8768,-147.8343 249.2311,-144.1827 247.4587,-147.44 249.8768,-147.8343"/>
<text text-anchor="middle" x="267.5" y="-167" font-family="Arial" font-size="10.00" fill="#0d1074">0.80%</text>
<text text-anchor="middle" x="267.5" y="-156" font-family="Arial" font-size="10.00" fill="#0d1074">694074×</text>
</g>
<!-- 11&#45;&gt;6 -->
<g id="edge18" class="edge">
<title>11&#45;&gt;6</title>
<path fill="none" stroke="#0d1074" stroke-width=".5" d="M364.4978,-183.8826C344.533,-172.0325 320.8957,-158.0026 300.5755,-145.9416"/>
<polygon fill="#0d1074" stroke="#0d1074" stroke-width=".5" points="300.9788,-144.7564 297.3437,-144.0234 299.7282,-146.8633 300.9788,-144.7564"/>
<text text-anchor="middle" x="368.5" y="-167" font-family="Arial" font-size="10.00" fill="#0d1074">0.79%</text>
<text text-anchor="middle" x="368.5" y="-156" font-family="Arial" font-size="10.00" fill="#0d1074">692398×</text>
</g>
<!-- 12&#45;&gt;10 -->
<g id="edge19" class="edge">
<title>12&#45;&gt;10</title>
<path fill="none" stroke="#0d0e73" stroke-width=".5" d="M379.0875,-305.9695C376.0397,-303.0879 373.1212,-300.0779 370.5,-297 353.2005,-276.6867 361.0944,-261.9638 340.5,-245 335.9884,-241.2837 327.6094,-237.2981 317.518,-233.3956"/>
<polygon fill="#0d0e73" stroke="#0d0e73" stroke-width=".5" points="317.7402,-232.1699 314.0331,-232.0758 316.8724,-234.4611 317.7402,-232.1699"/>
<text text-anchor="middle" x="389.5" y="-274" font-family="Arial" font-size="10.00" fill="#0d0e73">0.26%</text>
<text text-anchor="middle" x="389.5" y="-263" font-family="Arial" font-size="10.00" fill="#0d0e73">115350×</text>
</g>
<!-- 12&#45;&gt;11 -->
<g id="edge20" class="edge">
<title>12&#45;&gt;11</title>
<path fill="none" stroke="#0d0e73" stroke-width=".5" d="M412.4274,-305.8279C411.6332,-286.4497 410.55,-260.0194 409.7223,-239.824"/>
<polygon fill="#0d0e73" stroke="#0d0e73" stroke-width=".5" points="410.9382,-239.5756 409.5709,-236.1288 408.4903,-239.676 410.9382,-239.5756"/>
<text text-anchor="middle" x="431.5" y="-274" font-family="Arial" font-size="10.00" fill="#0d0e73">0.26%</text>
<text text-anchor="middle" x="431.5" y="-263" font-family="Arial" font-size="10.00" fill="#0d0e73">115350×</text>
</g>
<!-- 14&#45;&gt;10 -->
<g id="edge21" class="edge">
<title>14&#45;&gt;10</title>
<path fill="none" stroke="#0d0e73" stroke-width=".5" d="M236.9291,-305.8279C237.2467,-286.4497 237.68,-260.0194 238.0111,-239.824"/>
<polygon fill="#0d0e73" stroke="#0d0e73" stroke-width=".5" points="239.239,-239.6484 238.0717,-236.1288 236.7894,-239.6082 239.239,-239.6484"/>
<text text-anchor="middle" x="257.5" y="-274" font-family="Arial" font-size="10.00" fill="#0d0e73">0.27%</text>
<text text-anchor="middle" x="257.5" y="-263" font-family="Arial" font-size="10.00" fill="#0d0e73">115745×</text>
</g>
<!-- 14&#45;&gt;11 -->
<g id="edge22" class="edge">
<title>14&#45;&gt;11</title>
<path fill="none" stroke="#0d0e73" stroke-width=".5" d="M270.7098,-305.6529C273.4968,-302.8769 276.1428,-299.9762 278.5,-297 294.5427,-276.7445 285.0042,-261.9579 304.5,-245 308.7939,-241.2651 316.7482,-237.3671 326.4205,-233.5856"/>
<polygon fill="#0d0e73" stroke="#0d0e73" stroke-width=".5" points="326.9315,-234.7018 329.7637,-232.3081 326.057,-232.4132 326.9315,-234.7018"/>
<text text-anchor="middle" x="323.5" y="-274" font-family="Arial" font-size="10.00" fill="#0d0e73">0.27%</text>
<text text-anchor="middle" x="323.5" y="-263" font-family="Arial" font-size="10.00" fill="#0d0e73">115745×</text>
</g>
<!-- 8&#45;&gt;8 -->
<g id="edge15" class="edge">
<title>8&#45;&gt;8</title>
<path fill="none" stroke="#0d2d7c" stroke-width=".5" d="M699.1846,-522.3319C704.6567,-520.8958 708,-518.7852 708,-516 708,-513.9111 706.1194,-512.2017 702.8705,-510.8717"/>
<polygon fill="#0d2d7c" stroke="#0d2d7c" stroke-width=".5" points="702.892,-509.5901 699.1846,-509.6681 702.1315,-511.9191 702.892,-509.5901"/>
<text text-anchor="middle" x="729.5" y="-513.5" font-family="Arial" font-size="10.00" fill="#0d2d7c">1985120×</text>
</g>
</g>
</svg>
